# xmcd
#
# Track frame offsets:
#	183
#	13190
#	28715
#	39373
#	51840
#	65225
#	75985
#	87573
#	100205
#	111973
#	126110
#	144615
#	154810
#
# Disc length: 2280 seconds
#
# Revision: 1
# Processed by: cddbd v1.5.1PL2 Copyright (c) Steve Scherf et al.
# Submitted via: audiograbber 1.83.01
#
DISCID=af08e60d
DTITLE=Peter Hinnen - Peter Hinnen - Country Music
DYEAR=1994
DGENRE=Country
TTITLE0=Ich wär so gern in Louisiana
TTITLE1=El Rancho Grande (Auf meiner Ranch bin ich König)
TTITLE2=7000 Rinder
TTITLE3=Send Me The Pillow That You Dream On
TTITLE4=Yodeling My Way Back To You
TTITLE5=Ich bin der König der blauen Berge
TTITLE6=Der Cowboy hat immer ein Cowgirl
TTITLE7=In The Middle Of An Island
TTITLE8=Good Night Ladies
TTITLE9=Ein richtiger Cowboy
TTITLE10=Nashswiss Cowboy
TTITLE11=She Taught Me How To Yodel
TTITLE12=Peter Hinnen Medley
EXTD=
EXTT0=
EXTT1=
EXTT2=
EXTT3=
EXTT4=
EXTT5=
EXTT6=
EXTT7=
EXTT8=
EXTT9=
EXTT10=
EXTT11=
EXTT12=
PLAYORDER=
